<svg width="563" height="425" viewBox="0 0 563 425" fill="none" xmlns="http://www.w3.org/2000/svg">
<path d="M355.716 424.999H207.295L227.754 332.824H335.246L355.716 424.999Z" fill="#B3B3B3"/>
<path d="M563 337.95C563 349.221 553.786 358.429 542.53 358.429H20.4697C9.21451 358.429 0 349.21 0 337.95V20.4786C0 9.21854 9.21451 0 20.4697 0H542.52C553.786 0 562.989 9.21854 562.989 20.4786V337.95H563Z" fill="#CCCCCC"/>
<path d="M542.53 0H20.4697C9.21451 0 0 9.21854 0 20.4786V332.825H563V20.4786C563 9.21854 553.786 0 542.53 0Z" fill="#2E384C"/>
<path d="M370.874 417.307C370.874 413.077 367.413 409.625 363.195 409.625H199.806C195.588 409.625 192.127 413.077 192.127 417.307C192.127 421.527 195.588 424.989 199.806 424.989H363.195C367.413 425 370.874 421.538 370.874 417.307Z" fill="#CCCCCC"/>
</svg>
